<mxfile host="app.diagrams.net" agent="Mozilla/5.0 (Macintosh; Intel Mac OS X 10_15_7) AppleWebKit/605.1.15 (KHTML, like Gecko) Version/17.6 Safari/605.1.15" version="24.7.7">
  <diagram name="Page-1" id="oYGy0_2AHJIZkmXxk0uM">
    <mxGraphModel dx="720" dy="1162" grid="1" gridSize="10" guides="1" tooltips="1" connect="1" arrows="1" fold="1" page="1" pageScale="1" pageWidth="827" pageHeight="1169" math="0" shadow="0">
      <root>
        <mxCell id="0" />
        <mxCell id="1" parent="0" />
        <mxCell id="kIZj6_A6XLjHFhxJPIad-5" style="edgeStyle=orthogonalEdgeStyle;rounded=0;orthogonalLoop=1;jettySize=auto;html=1;entryX=0;entryY=0.5;entryDx=0;entryDy=0;" edge="1" parent="1" source="kIZj6_A6XLjHFhxJPIad-1" target="kIZj6_A6XLjHFhxJPIad-2">
          <mxGeometry relative="1" as="geometry" />
        </mxCell>
        <mxCell id="kIZj6_A6XLjHFhxJPIad-1" value="Client" style="whiteSpace=wrap;html=1;" vertex="1" parent="1">
          <mxGeometry x="110" y="260" width="120" height="60" as="geometry" />
        </mxCell>
        <mxCell id="kIZj6_A6XLjHFhxJPIad-6" style="edgeStyle=orthogonalEdgeStyle;rounded=0;orthogonalLoop=1;jettySize=auto;html=1;" edge="1" parent="1" source="kIZj6_A6XLjHFhxJPIad-2" target="kIZj6_A6XLjHFhxJPIad-3">
          <mxGeometry relative="1" as="geometry" />
        </mxCell>
        <mxCell id="kIZj6_A6XLjHFhxJPIad-2" value="Service" style="whiteSpace=wrap;html=1;" vertex="1" parent="1">
          <mxGeometry x="294" y="260" width="120" height="60" as="geometry" />
        </mxCell>
        <mxCell id="kIZj6_A6XLjHFhxJPIad-3" value="Database" style="whiteSpace=wrap;html=1;" vertex="1" parent="1">
          <mxGeometry x="480" y="260" width="120" height="60" as="geometry" />
        </mxCell>
        <mxCell id="kIZj6_A6XLjHFhxJPIad-4" value="" style="verticalLabelPosition=bottom;html=1;verticalAlign=top;align=center;strokeColor=none;fillColor=#00BEF2;shape=mxgraph.azure.computer;pointerEvents=1;" vertex="1" parent="1">
          <mxGeometry x="200" y="220" width="50" height="45" as="geometry" />
        </mxCell>
        <mxCell id="kIZj6_A6XLjHFhxJPIad-7" value="" style="image;sketch=0;aspect=fixed;html=1;points=[];align=center;fontSize=12;image=img/lib/mscae/CosmosDB.svg;" vertex="1" parent="1">
          <mxGeometry x="580" y="220" width="50" height="50" as="geometry" />
        </mxCell>
        <mxCell id="kIZj6_A6XLjHFhxJPIad-8" value="" style="verticalLabelPosition=bottom;html=1;verticalAlign=top;align=center;strokeColor=none;fillColor=#00BEF2;shape=mxgraph.azure.server_rack;" vertex="1" parent="1">
          <mxGeometry x="389" y="220" width="50" height="50" as="geometry" />
        </mxCell>
      </root>
    </mxGraphModel>
  </diagram>
</mxfile>
